<?xml version="1.0" encoding="UTF-8" standalone="no"?>
<!DOCTYPE svg PUBLIC "-//W3C//DTD SVG 1.1//EN"
 "http://www.w3.org/Graphics/SVG/1.1/DTD/svg11.dtd">
<!-- Generated by graphviz version 2.47.0 (20210316.0004)
 -->
<!-- Title: dependencies Pages: 1 -->
<svg width="504pt" height="287pt"
 viewBox="0.00 0.00 504.00 287.00" xmlns="http://www.w3.org/2000/svg" xmlns:xlink="http://www.w3.org/1999/xlink">
<g id="graph0" class="graph" transform="scale(1 1) rotate(0) translate(4 283)">
<title>dependencies</title>
<polygon fill="white" stroke="transparent" points="-4,4 -4,-283 500,-283 500,4 -4,4"/>
<text text-anchor="start" x="227.01" y="-42.4" font-family="Times-12" font-weight="bold" font-size="14.00">Legend</text>
<polygon fill="#ffffb3" stroke="transparent" points="14,-10 14,-30 34,-30 34,-10 14,-10"/>
<text text-anchor="start" x="37.63" y="-15.4" font-family="Times-12" font-size="14.00"> &#160;Declarations</text>
<polygon fill="#8dd3c7" stroke="transparent" points="127,-10 127,-30 147,-30 147,-10 127,-10"/>
<text text-anchor="start" x="150.73" y="-15.4" font-family="Times-12" font-size="14.00"> &#160;Module</text>
<polygon fill="#80b1d3" stroke="transparent" points="213,-10 213,-30 233,-30 233,-10 213,-10"/>
<text text-anchor="start" x="236.78" y="-15.4" font-family="Times-12" font-size="14.00"> &#160;Bootstrap</text>
<polygon fill="#fdb462" stroke="transparent" points="310,-10 310,-30 330,-30 330,-10 310,-10"/>
<text text-anchor="start" x="333.67" y="-15.4" font-family="Times-12" font-size="14.00"> &#160;Providers</text>
<polygon fill="#fb8072" stroke="transparent" points="406,-10 406,-30 426,-30 426,-10 406,-10"/>
<text text-anchor="start" x="429.73" y="-15.4" font-family="Times-12" font-size="14.00"> &#160;Exports</text>
<g id="clust1" class="cluster">
<title>cluster_NgSafeStylePipeModule</title>
<polygon fill="none" stroke="black" stroke-dasharray="1,5" points="63,-70 63,-271 235,-271 235,-70 63,-70"/>
</g>
<g id="clust2" class="cluster">
<title>cluster_NgSafeStylePipeModule_declarations</title>
<polygon fill="none" stroke="black" points="94,-78 94,-130 204,-130 204,-78 94,-78"/>
</g>
<g id="clust5" class="cluster">
<title>cluster_NgSafeStylePipeModule_exports</title>
<polygon fill="none" stroke="black" points="92,-211 92,-263 206,-263 206,-211 92,-211"/>
</g>
<g id="clust8" class="cluster">
<title>cluster_PlayerClientModule</title>
<polygon fill="none" stroke="black" stroke-dasharray="1,5" points="243,-78 243,-203 433,-203 433,-78 243,-78"/>
</g>
<g id="clust11" class="cluster">
<title>cluster_PlayerClientModule_exports</title>
<polygon fill="none" stroke="black" points="251,-143 251,-195 425,-195 425,-143 251,-143"/>
</g>
<!-- SafeStylePipe -->
<g id="node1" class="node">
<title>SafeStylePipe</title>
<polygon fill="#ffffb3" stroke="black" points="196.04,-122 101.96,-122 101.96,-86 196.04,-86 196.04,-122"/>
<text text-anchor="middle" x="149" y="-99.8" font-family="Times,serif" font-size="14.00">SafeStylePipe</text>
</g>
<!-- NgSafeStylePipeModule -->
<g id="node2" class="node">
<title>NgSafeStylePipeModule</title>
<polygon fill="#8dd3c7" stroke="black" points="226.7,-187 223.7,-191 202.7,-191 199.7,-187 71.3,-187 71.3,-151 226.7,-151 226.7,-187"/>
<text text-anchor="middle" x="149" y="-164.8" font-family="Times,serif" font-size="14.00">NgSafeStylePipeModule</text>
</g>
<!-- SafeStylePipe&#45;&gt;NgSafeStylePipeModule -->
<g id="edge1" class="edge">
<title>SafeStylePipe&#45;&gt;NgSafeStylePipeModule</title>
<path fill="none" stroke="black" d="M149,-122.11C149,-122.11 149,-140.99 149,-140.99"/>
<polygon fill="black" stroke="black" points="145.5,-140.99 149,-150.99 152.5,-140.99 145.5,-140.99"/>
</g>
<!-- SafeStylePipe  -->
<g id="node3" class="node">
<title>SafeStylePipe </title>
<polygon fill="#fb8072" stroke="black" points="198.04,-255 99.96,-255 99.96,-219 198.04,-219 198.04,-255"/>
<text text-anchor="middle" x="149" y="-232.8" font-family="Times,serif" font-size="14.00">SafeStylePipe </text>
</g>
<!-- NgSafeStylePipeModule&#45;&gt;SafeStylePipe  -->
<g id="edge2" class="edge">
<title>NgSafeStylePipeModule&#45;&gt;SafeStylePipe </title>
<path fill="none" stroke="black" stroke-dasharray="5,2" d="M149,-187.22C149,-187.22 149,-208.73 149,-208.73"/>
<polygon fill="black" stroke="black" points="145.5,-208.73 149,-218.73 152.5,-208.73 145.5,-208.73"/>
</g>
<!-- NgSafeStylePipeModule  -->
<g id="node4" class="node">
<title>NgSafeStylePipeModule </title>
<polygon fill="#fb8072" stroke="black" points="417.2,-187 258.8,-187 258.8,-151 417.2,-151 417.2,-187"/>
<text text-anchor="middle" x="338" y="-164.8" font-family="Times,serif" font-size="14.00">NgSafeStylePipeModule </text>
</g>
<!-- PlayerClientModule -->
<g id="node5" class="node">
<title>PlayerClientModule</title>
<polygon fill="#8dd3c7" stroke="black" points="402.54,-122 399.54,-126 378.54,-126 375.54,-122 273.46,-122 273.46,-86 402.54,-86 402.54,-122"/>
<text text-anchor="middle" x="338" y="-99.8" font-family="Times,serif" font-size="14.00">PlayerClientModule</text>
</g>
<!-- PlayerClientModule&#45;&gt;NgSafeStylePipeModule  -->
<g id="edge3" class="edge">
<title>PlayerClientModule&#45;&gt;NgSafeStylePipeModule </title>
<path fill="none" stroke="black" stroke-dasharray="5,2" d="M338,-122.11C338,-122.11 338,-140.99 338,-140.99"/>
<polygon fill="black" stroke="black" points="334.5,-140.99 338,-150.99 341.5,-140.99 334.5,-140.99"/>
</g>
</g>
</svg>
